name C:\Users\u0101727\Documents\MyRepositories\upper-imu-dc\Results\main_tracking\Case_31\kinematics.mot
datacolumns 10
datarows 18
range 5.00000000 5.17000000
endheader 
time	clav_prot	clav_elev	scapula_abduction	scapula_elevation	scapula_upward_rot	scapula_winging	plane_elv	shoulder_elv	axial_rot	
          5.00000000	        -23.62768056	          2.23694097	         -0.53010371	         -4.10232795	         35.82964561	         -2.00129535	         68.64427523	         46.10044196	        -22.65186219	
          5.01000000	        -23.46995641	          2.02098626	         -0.65642007	         -4.15286109	         35.22384631	         -1.81738406	         68.42261591	         45.70461263	        -22.38219843	
          5.02000000	        -23.30088168	          1.80111559	         -0.75267896	         -4.20536849	         34.62712338	         -1.63297121	         68.19333204	         45.31169457	        -22.10056369	
          5.03000000	        -23.13391497	          1.57782591	         -0.83825604	         -4.26139223	         34.04543983	         -1.44968183	         67.96236488	         44.91806514	        -21.81300188	
          5.04000000	        -23.27358978	          1.38695855	         -1.46225588	         -4.31222155	         33.47421634	         -1.27438137	         67.74034631	         44.53006928	        -21.52795991	
          5.05000000	        -23.50797224	          1.20807000	         -2.24737438	         -4.35985752	         32.91065760	         -1.10291583	         67.51516844	         44.15120150	        -21.26016250	
          5.06000000	        -23.38728506	          0.98374984	         -2.39355483	         -4.41814662	         32.34809742	         -0.91654444	         67.26988607	         43.79100592	        -21.02985389	
          5.07000000	        -23.29975401	          0.75499620	         -2.59660107	         -4.47984579	         31.78302534	         -0.72691156	         66.99560881	         43.44981138	        -20.85117071	
          5.08000000	        -23.24873374	          0.52325308	         -2.85376160	         -4.54626480	         31.22748442	         -0.53673296	         66.68222958	         43.11626364	        -20.73698842	
          5.09000000	        -23.22571015	          0.28561533	         -3.14393766	         -4.62045120	         30.68877034	         -0.34665032	         66.32833816	         42.78373388	        -20.68793675	
          5.10000000	        -23.21616967	          0.04104253	         -3.43841560	         -4.70327327	         30.17120052	         -0.15737595	         65.93964250	         42.44825917	        -20.69377338	
          5.11000000	        -23.21145571	         -0.20927578	         -3.72179060	         -4.79376003	         29.67593502	          0.03038904	         65.52551150	         42.10812218	        -20.73587669	
          5.12000000	        -23.20920591	         -0.46292477	         -3.99143100	         -4.89004499	         29.20221790	          0.21602570	         65.09549403	         41.76239118	        -20.79250923	
          5.13000000	        -23.20951000	         -0.71763033	         -4.24966662	         -4.99028450	         28.74826180	          0.39919104	         64.65697897	         41.41008752	        -20.84365598	
          5.14000000	        -23.21257566	         -0.97186212	         -4.49907531	         -5.09307527	         28.31186578	          0.57985134	         64.21458640	         41.04982088	        -20.87363276	
          5.15000000	        -23.21844985	         -1.22456233	         -4.74179333	         -5.19731694	         27.89080404	          0.75811530	         63.77110261	         40.67975728	        -20.87093162	
          5.16000000	        -23.22738841	         -1.47442784	         -4.98024134	         -5.30174193	         27.48299067	          0.93397103	         63.32910076	         40.29782101	        -20.82624304	
          5.17000000	        -23.24020761	         -1.71923007	         -5.21804509	         -5.40440023	         27.08629768	          1.10709476	         62.89218407	         39.90218224	        -20.73021725	
